<?xml version="1.0" standalone="no"?>
<!DOCTYPE svg PUBLIC "-//W3C//DTD SVG 20010904//EN"
 "http://www.w3.org/TR/2001/REC-SVG-20010904/DTD/svg10.dtd">
<svg version="1.0" xmlns="http://www.w3.org/2000/svg"
 width="200.000000pt" height="100.000000pt" viewBox="0 0 200.000000 100.000000"
 preserveAspectRatio="xMidYMid meet">
<metadata>
Created by potrace 1.16, written by Peter Selinger 2001-2019
</metadata>
<g transform="translate(0.000000,100.000000) scale(0.100000,-0.100000)"
fill="#000000" stroke="none">
<path d="M1317 826 c-33 -14 -61 -27 -65 -30 -3 -4 -7 -41 -8 -83 -2 -76 -2
-77 -35 -94 -19 -10 -47 -28 -62 -41 l-28 -23 22 -70 c34 -113 86 -203 160
-277 39 -40 75 -68 87 -68 28 0 109 93 162 186 44 76 114 248 108 264 -2 5
-47 -27 -100 -71 -97 -80 -98 -81 -98 -125 0 -24 -4 -44 -9 -44 -16 0 -79 84
-103 136 -21 48 -32 163 -16 179 3 4 24 9 45 12 57 8 98 -29 113 -102 6 -30
14 -55 16 -55 3 0 39 26 80 57 80 62 86 75 60 137 -17 42 -71 103 -107 122
-45 23 -154 18 -222 -10z"/>
<path d="M580 325 l0 -115 30 0 c29 0 30 1 30 49 0 51 18 78 45 67 11 -4 15
-21 15 -61 0 -54 0 -55 30 -55 l30 0 0 60 c0 52 -4 65 -26 87 -21 21 -32 24
-60 20 -33 -6 -34 -5 -34 29 0 31 -2 34 -30 34 l-30 0 0 -115z"/>
<path d="M433 419 c-45 -13 -73 -53 -73 -104 0 -79 70 -127 152 -105 46 13 55
26 33 50 -16 18 -19 18 -42 3 -50 -33 -113 31 -80 81 22 33 52 41 81 22 22
-14 25 -13 41 4 9 10 14 23 11 29 -6 9 -72 32 -86 30 -3 0 -19 -5 -37 -10z"/>
<path d="M980 390 c0 -11 -4 -20 -10 -20 -5 0 -10 -9 -10 -20 0 -11 4 -20 9
-20 5 0 11 -23 13 -51 3 -27 9 -54 14 -59 14 -14 67 -22 82 -12 18 12 4 42
-19 42 -15 0 -19 7 -19 40 0 33 3 40 20 40 13 0 20 7 20 20 0 13 -7 20 -20 20
-13 0 -20 7 -20 20 0 16 -7 20 -30 20 -23 0 -30 -4 -30 -20z"/>
<path d="M813 370 c-25 -10 -26 -11 -17 -33 4 -11 16 -14 43 -10 23 3 41 1 45
-6 5 -7 -5 -11 -28 -11 -23 0 -43 -7 -56 -20 -23 -23 -25 -39 -7 -64 13 -18
38 -22 110 -18 l37 2 0 65 c0 52 -4 69 -20 85 -21 21 -68 25 -107 10z"/>
</g>
</svg>
